<svg xmlns="http://www.w3.org/2000/svg" xmlns:xlink="http://www.w3.org/1999/xlink" viewBox="0 0 1280 210">
  <defs>
    <rect id="frame" width="1280" height="210"/>
  </defs>
  <clipPath id="clip">
    <use xlink:href="#frame" overflow="visible"/>
  </clipPath>
  <g opacity="0.1" clip-path="url(#clip)" fill="none" stroke="#FFFFFF" stroke-width="1.5">
    <path d="M176.9,166.5c-33.2,4.3-76.9-84.4-102.3-62.6c-18.9,16.2,38.1,66.8,37.4,91.7c-0.9,33.6,32.1,52.7,0,62.6c-23.3,7.2-37.3-27.7-58.8-16c-24.9,13.5,49.3,93,72.6,109.2c37.6,26.2,48.2-46,90.1-27.5c20.5,9,28,28.6,50.4,27.5c42.7-2.1-26.6-81.8,6.1-109.2c33.5-28.1,105.4,59.4,110.7,16c4.1-33.5-38.1-36.6-59.6-62.6c-24.8-30-20.6-68.7-57.3-81.7C233.3,102.1,211.7,162,176.9,166.5z"/>
    <path d="M166.3,149.5C124.1,155,68.5,42.2,36.1,69.9c-24,20.6,48.5,85,47.6,116.6c-1.1,42.8,40.9,67,0,79.7C54,275.4,36.2,231,8.9,245.8c-31.6,17.2,62.8,118.4,92.3,138.9c47.8,33.3,61.4-58.5,114.7-35c26.1,11.5,35.6,36.4,64.1,35c54.3-2.7-33.9-104,7.8-138.9c42.6-35.7,134.1,75.6,140.9,20.4c5.2-42.6-48.4-46.6-75.8-79.7c-31.6-38.2-26.2-87.3-72.9-104C238,67.6,210.5,143.9,166.3,149.5z"/>
    <path d="M156.8,134.3C106.5,140.8,40.2,6.4,1.7,39.4c-28.7,24.5,57.8,101.3,56.7,139c-1.4,51,48.7,79.9,0,95C23,284.3,1.8,231.3-30.7,249c-37.7,20.4,74.8,141.1,110,165.6c57,39.7,73.1-69.7,136.6-41.7c31.1,13.7,42.5,43.4,76.4,41.7c64.7-3.2-40.4-124,9.3-165.6c50.8-42.6,159.8,90.1,167.9,24.3c6.2-50.8-57.7-55.5-90.3-95c-37.7-45.5-31.2-104-86.9-123.8C242.3,36.7,209.5,127.6,156.8,134.3z"/>
    <path d="M149.3,122.3C92.6,129.6,17.8-21.9-25.6,15.2c-32.3,27.6,65.1,114.2,64,156.7c-1.5,57.4,54.9,90.1,0,107.1c-39.9,12.3-63.8-47.3-100.5-27.4c-42.5,23,84.3,159.1,124,186.7c64.3,44.7,82.4-78.6,154.1-47c35.1,15.5,47.9,48.9,86.2,47c72.9-3.6-45.5-139.8,10.4-186.7c57.2-48,180.2,101.6,189.3,27.4c7-57.3-65.1-62.6-101.8-107.1c-42.5-51.3-35.2-117.4-97.9-139.7C245.7,12.1,208.7,114.7,149.3,122.3z"/>
    <path d="M140.3,107.8C75.8,116.1-9.2-56.1-58.5-13.9c-36.7,31.4,74,129.8,72.7,178.1c-1.8,65.3,62.4,102.4,0,121.7c-45.3,14-72.5-53.8-114.2-31.2c-48.3,26.2,95.8,180.8,140.9,212.2c73,50.8,93.7-89.3,175.1-53.4c39.9,17.6,54.4,55.6,97.9,53.4c82.9-4.1-51.7-158.8,11.9-212.2c65-54.6,204.8,115.4,215.1,31.2c8-65.1-73.9-71.1-115.7-121.7c-48.3-58.3-40-133.4-111.3-158.8C249.7-17.4,207.8,99.1,140.3,107.8z"/>
    <path d="M130.9,92.8C58.5,102.1-37.1-91.4-92.6-44C-133.8-8.7-9.4,101.9-10.8,156.2c-2,73.4,70.1,115.1,0,136.7c-50.9,15.8-81.5-60.4-128.4-35c-54.3,29.4,107.7,203.2,158.4,238.5c82.1,57.1,105.3-100.4,196.8-60c44.8,19.8,61.2,62.5,110.1,60c93.2-4.6-58.1-178.5,13.3-238.5c73.1-61.3,230.2,129.7,241.8,35c9-73.2-83.1-80-130.1-136.7C396.8,90.6,406.2,6.3,326-22.3C253.9-47.9,206.8,83,130.9,92.8z"/>
    <path d="M120.2,75.6C38.6,86.1-68.9-131.8-131.5-78.4C-178-38.7-37.8,85.8-39.5,147c-2.2,82.6,79,129.6,0,154c-57.4,17.7-91.8-68.1-144.6-39.4C-245.2,294.7-62.7,490.4-5.6,530.1c92.4,64.3,118.6-113,221.6-67.6c50.4,22.3,68.9,70.4,123.9,67.6c104.9-5.2-65.5-201.1,15-268.6c82.3-69.1,259.2,146.1,272.3,39.4c10.1-82.4-93.6-90-146.5-154c-61-73.7-50.5-168.7-140.8-200.8C258.8-82.8,205.7,64.6,120.2,75.6z"/>
    <path d="M1249.4-100.5c-26.6-16.6-5.7-107-37.1-106.4c-23.3,0.5-12.1,71.2-27.3,88.8c-20.6,23.9-8,57.4-37.2,45.5c-21.2-8.6-10.7-42.3-33.2-46.6c-26.1-5-19.5,96.9-12.2,122.5c11.8,41.4,62.4-4.7,81.8,33.6c9.5,18.8,3.3,37.4,20.3,49.9c32.3,23.8,29.3-75.2,69.4-75.7c41-0.5,41.3,105.8,70.9,77.5c22.9-21.9-5.9-49.2-6-80.9c-0.2-36.6,25.9-62.1,7-93.4C1328.7-113.8,1277.3-83.1,1249.4-100.5z"/>
    <path d="M1251.8-119.1c-33.9-21.2-7.3-136.2-47.2-135.3c-29.7,0.6-15.3,90.6-34.8,113c-26.3,30.4-10.2,73-47.4,57.9c-27-11-13.6-53.8-42.2-59.3c-33.2-6.4-24.8,123.3-15.6,155.8c14.9,52.6,79.3-6,104.1,42.8c12.1,23.9,4.2,47.6,25.8,63.5c41,30.3,37.2-95.7,88.3-96.3c52.2-0.6,52.5,134.7,90.2,98.6c29.1-27.9-7.5-62.6-7.7-102.9c-0.2-46.5,32.9-79,8.9-118.9C1352.6-136.1,1287.3-97,1251.8-119.1z"/>
    <path d="M1253.9-135.8c-40.4-25.2-8.7-162.3-56.3-161.3c-35.4,0.8-18.3,107.9-41.4,134.7c-31.3,36.2-12.1,87-56.5,69c-32.2-13.1-16.2-64.1-50.3-70.7c-39.5-7.6-29.6,147-18.6,185.7c17.8,62.7,94.6-7.2,124.1,51c14.4,28.5,5.1,56.8,30.7,75.7c48.9,36.1,44.4-114.1,105.2-114.8c62.2-0.7,62.6,160.5,107.5,117.5c34.7-33.2-8.9-74.6-9.1-122.7c-0.3-55.5,39.2-94.2,10.6-141.7C1374.1-156,1296.3-109.4,1253.9-135.8z"/>
    <path d="M1255.7-149c-45.6-28.4-9.8-183-63.4-181.8c-39.9,0.9-20.6,121.7-46.7,151.9c-35.3,40.8-13.7,98.1-63.7,77.8c-36.3-14.8-18.2-72.3-56.7-79.7c-44.6-8.5-33.3,165.7-20.9,209.4c20.1,70.7,106.6-8.1,139.9,57.5c16.3,32.1,5.7,64,34.7,85.4c55.2,40.7,50.1-128.6,118.6-129.4c70.1-0.8,70.5,181,121.2,132.5c39.2-37.4-10-84.2-10.3-138.3c-0.3-62.6,44.2-106.2,11.9-159.7C1391.1-171.8,1303.3-119.3,1255.7-149z"/>
    <path d="M1257.7-165c-51.8-32.3-11.1-207.9-72.1-206.6c-45.3,1-23.4,138.3-53.1,172.6c-40.1,46.4-15.6,111.5-72.4,88.4c-41.3-16.8-20.7-82.2-64.5-90.6c-50.7-9.7-37.9,188.3-23.8,237.9c22.8,80.3,121.2-9.2,158.9,65.3c18.5,36.5,6.5,72.7,39.4,97c62.9,46.4,57.1-146,135-147c79.7-1,80.1,205.6,137.8,150.6c44.5-42.5-11.4-95.6-11.7-157.2c-0.4-71.1,50.3-120.6,13.6-181.5C1411.7-190.8,1311.9-131.1,1257.7-165z"/>
    <path d="M1259.8-181.4c-58.2-36.3-12.5-233.7-81-232.2c-51,1.1-26.3,155.4-59.7,194c-45.1,52.1-17.5,125.3-81.3,99.3c-46.4-18.9-23.3-92.4-72.5-101.8c-57-10.9-42.6,211.7-26.7,267.5c25.7,90.3,136.2-10.3,178.7,73.4c20.8,41,7.3,81.8,44.3,109.1c70.4,52,63.9-164.3,151.5-165.3c89.6-1.1,90.1,231.1,154.9,169.2c50-47.8-12.8-107.5-13.2-176.7c-0.4-79.9,56.5-135.6,15.2-204C1432.9-210.5,1320.8-143.4,1259.8-181.4z"/>
    <path d="M1262.2-200.3c-65.5-40.9-14-263.2-91.2-261.5c-57.4,1.2-29.6,175-67.2,218.5c-50.8,58.7-19.7,141.1-91.6,111.9C960-152.6,986-235.4,930.6-246c-64.1-12.3-47.9,238.4-30.1,301.2c28.9,101.7,153.4-11.6,201.2,82.7c23.4,46.2,8.2,92.1,49.8,122.8c79.3,58.6,72-185,170.6-186.2c100.9-1.2,101.5,260.3,174.4,190.6c56.3-53.8-14.4-121.1-14.8-199c-0.5-90,63.7-152.7,17.2-229.7C1457.1-233,1330.9-157.4,1262.2-200.3z"/>
  </g>
</svg>
