<svg xmlns="http://www.w3.org/2000/svg" xmlns:xlink="http://www.w3.org/1999/xlink" id="Layer_1" data-name="Layer 1" viewBox="51.19 62.18 503.02 523.59"><defs><style>.cls-1{fill:url(#radial-gradient);}.cls-2{fill:#ededed;}.cls-3{fill:url(#linear-gradient);}.cls-4{fill:#f5f5f5;}.cls-5{fill:url(#linear-gradient-2);}.cls-6{fill:url(#linear-gradient-3);}.cls-18,.cls-42,.cls-7{fill:#001d6e;}.cls-14,.cls-37,.cls-8{fill:#fff;}.cls-9{fill:url(#linear-gradient-4);}.cls-10{fill:url(#linear-gradient-5);}.cls-11{fill:url(#linear-gradient-6);}.cls-12{fill:url(#linear-gradient-7);}.cls-13{fill:#5c5e61;}.cls-14{opacity:0.29;}.cls-15{fill:none;stroke-miterlimit:10;stroke:url(#linear-gradient-8);}.cls-16{fill:#bcbec0;}.cls-17{fill:url(#linear-gradient-9);}.cls-18{opacity:0.8;}.cls-19{fill:url(#linear-gradient-10);}.cls-20{fill:url(#linear-gradient-11);}.cls-21{fill:#333435;}.cls-22{fill:url(#linear-gradient-12);}.cls-23{fill:url(#linear-gradient-13);}.cls-24{fill:#e8e9ea;}.cls-25{fill:url(#linear-gradient-14);}.cls-26{fill:url(#linear-gradient-15);}.cls-27{fill:#e2e2e2;}.cls-28{fill:#e8e8ef;}.cls-29{fill:url(#linear-gradient-16);}.cls-30{fill:url(#linear-gradient-17);}.cls-31{fill:#f4f4f4;}.cls-32{fill:url(#linear-gradient-18);}.cls-33{fill:url(#linear-gradient-19);}.cls-34{fill:url(#linear-gradient-20);}.cls-35{fill:url(#linear-gradient-21);}.cls-36{fill:url(#linear-gradient-22);}.cls-37{opacity:0.53;}.cls-38{fill:url(#linear-gradient-23);}.cls-39{fill:url(#linear-gradient-24);}.cls-40{fill:url(#linear-gradient-25);}.cls-41{fill:url(#linear-gradient-26);}.cls-42{font-size:15.38px;font-family:Gilroy-SemiBold;font-weight:600;}.cls-43{letter-spacing:0.01em;}.cls-44{letter-spacing:-0.05em;}.cls-45{fill:url(#linear-gradient-27);}.cls-46{fill:url(#linear-gradient-28);}.cls-47{fill:url(#linear-gradient-29);}</style><radialGradient id="radial-gradient" cx="-79.05" cy="491.32" r="187.84" gradientTransform="translate(531.42 -97.52) rotate(16.91)" gradientUnits="userSpaceOnUse"><stop offset="0.16" stop-color="#90c2e8"/><stop offset="0.58" stop-color="#47afff"/><stop offset="1" stop-color="#6783f5"/></radialGradient><linearGradient id="linear-gradient" x1="161.28" y1="497.16" x2="520.31" y2="86.85" gradientUnits="userSpaceOnUse"><stop offset="0" stop-color="#40d5e6"/><stop offset="1" stop-color="#57f"/></linearGradient><linearGradient id="linear-gradient-2" x1="252.64" y1="96.7" x2="358.44" y2="96.7" xlink:href="#linear-gradient"/><linearGradient id="linear-gradient-3" x1="260.51" y1="271.81" x2="333.83" y2="271.81" gradientTransform="translate(5.24 -5.62) rotate(1.09)" gradientUnits="userSpaceOnUse"><stop offset="0" stop-color="#ff9f55"/><stop offset="1" stop-color="#ffd255"/></linearGradient><linearGradient id="linear-gradient-4" x1="414" y1="256.17" x2="525.5" y2="256.17" gradientTransform="matrix(1, 0, 0, 1, 0, 0)" xlink:href="#linear-gradient-3"/><linearGradient id="linear-gradient-5" x1="138.17" y1="89.84" x2="193.32" y2="89.84" gradientTransform="matrix(1, 0, 0, 1, 0, 0)" xlink:href="#linear-gradient-3"/><linearGradient id="linear-gradient-6" x1="503.08" y1="324.77" x2="507.6" y2="394.04" xlink:href="#linear-gradient"/><linearGradient id="linear-gradient-7" x1="503.08" y1="324.77" x2="507.6" y2="394.04" gradientTransform="translate(151.28 858.65) rotate(-90)" xlink:href="#linear-gradient"/><linearGradient id="linear-gradient-8" x1="196.93" y1="389.81" x2="254.09" y2="389.81" gradientTransform="matrix(1, 0, 0, 1, 0, 0)" xlink:href="#linear-gradient-3"/><linearGradient id="linear-gradient-9" x1="204" y1="454.76" x2="216.26" y2="454.76" gradientTransform="matrix(1, 0, 0, 1, 0, 0)" xlink:href="#linear-gradient-3"/><linearGradient id="linear-gradient-10" x1="242.95" y1="333.55" x2="246.1" y2="333.55" gradientUnits="userSpaceOnUse"><stop offset="0" stop-color="#fff"/><stop offset="1" stop-color="#efeff4"/></linearGradient><linearGradient id="linear-gradient-11" x1="204.07" y1="347.12" x2="308.96" y2="347.12" gradientTransform="matrix(1, 0, 0, 1, 0, 0)" xlink:href="#linear-gradient-3"/><linearGradient id="linear-gradient-12" x1="64.36" y1="556.62" x2="62.92" y2="560.72" xlink:href="#linear-gradient-10"/><linearGradient id="linear-gradient-13" x1="99.58" y1="558.15" x2="99.47" y2="562.04" xlink:href="#linear-gradient-10"/><linearGradient id="linear-gradient-14" x1="-5659.96" y1="473.91" x2="-5685.75" y2="507.26" gradientTransform="translate(5771.81)" gradientUnits="userSpaceOnUse"><stop offset="0" stop-color="#b9bcc5"/><stop offset="1" stop-color="#b9bcc5"/></linearGradient><linearGradient id="linear-gradient-15" x1="197.78" y1="368.94" x2="208.88" y2="359.18" xlink:href="#linear-gradient-10"/><linearGradient id="linear-gradient-16" x1="54.45" y1="450.83" x2="147.39" y2="450.83" gradientTransform="matrix(1, 0, 0, 1, 0, 0)" xlink:href="#linear-gradient-3"/><linearGradient id="linear-gradient-17" x1="61.76" y1="454.7" x2="7.29" y2="410.07" xlink:href="#linear-gradient-10"/><linearGradient id="linear-gradient-18" x1="186.33" y1="355.92" x2="197.42" y2="346.16" xlink:href="#linear-gradient-10"/><linearGradient id="linear-gradient-19" x1="273.43" y1="270" x2="321.78" y2="270" gradientTransform="matrix(1, 0, 0, 1, 0, 0)" xlink:href="#linear-gradient-3"/><linearGradient id="linear-gradient-20" x1="276.47" y1="271.52" x2="319.29" y2="271.52" gradientTransform="matrix(1, 0, 0, 1, 0, 0)" xlink:href="#linear-gradient-3"/><linearGradient id="linear-gradient-21" x1="328.63" y1="447.97" x2="397.15" y2="447.97" gradientTransform="translate(52.77 -38.02) rotate(6.47)" xlink:href="#linear-gradient-3"/><linearGradient id="linear-gradient-22" x1="342.12" y1="445.81" x2="384.87" y2="445.81" gradientTransform="matrix(1, 0, 0, 1, 0, 0)" xlink:href="#linear-gradient-3"/><linearGradient id="linear-gradient-23" x1="357.44" y1="423.1" x2="369.44" y2="423.1" gradientTransform="matrix(1, 0, 0, 1, 0, 0)" xlink:href="#linear-gradient-3"/><linearGradient id="linear-gradient-24" x1="316.18" y1="344.04" x2="397.95" y2="344.04" gradientTransform="translate(41.02 -38.03) rotate(6.47)" xlink:href="#linear-gradient-3"/><linearGradient id="linear-gradient-25" x1="329.8" y1="342.39" x2="383.99" y2="342.39" gradientTransform="matrix(1, 0, 0, 1, 0, 0)" xlink:href="#linear-gradient-3"/><linearGradient id="linear-gradient-26" x1="234.93" y1="260.16" x2="234.93" y2="176.78" gradientUnits="userSpaceOnUse"><stop offset="0" stop-color="#7db3e0"/><stop offset="1" stop-color="#fff"/></linearGradient><linearGradient id="linear-gradient-27" x1="331.8" y1="157.75" x2="393.56" y2="157.75" xlink:href="#linear-gradient"/><linearGradient id="linear-gradient-28" x1="331.8" y1="190.5" x2="388.5" y2="190.5" xlink:href="#linear-gradient"/><linearGradient id="linear-gradient-29" x1="331.8" y1="174.12" x2="380.85" y2="174.12" xlink:href="#linear-gradient"/></defs><path class="cls-1" d="M554.21,456.23l-2.81,9.23a143.81,143.81,0,0,1-29.29-6c-38.3-11.65-67.07-37.56-96.43-65.21l-4.75-4.48c-38.32-36.19-77.95-73.6-142.09-86.15-41-8-70.81.58-97.14,8.16-23.86,6.87-46.14,12.51-71.94,5.72-41.69-11-50.65-32.88-50.56-34l3.43-11.28c0,.21,3,22.42,48.94,36.39l.79.24c23,6.87,43.31,1,66.82-5.75,27.33-7.86,58.29-16.78,101.4-8.34,66.71,13.05,107.31,51.37,146.57,88.45,3.92,3.7,7.83,7.39,11.76,11C472.08,425,505.78,452.07,554.21,456.23Z"/><rect class="cls-2" x="182.57" y="96.61" width="277.69" height="484.89" rx="13.19"/><rect class="cls-3" x="166.7" y="89.84" width="277.69" height="484.89" rx="6.41"/><rect class="cls-4" x="189.5" y="98.38" width="232.09" height="456.25" rx="6.54"/><path class="cls-5" d="M353.6,103.59H257.47c-2.67,0-4.83-3.08-4.83-6.89h0V89.8h105.8v6.9h0C358.44,100.51,356.27,103.59,353.6,103.59Z"/><ellipse class="cls-6" cx="297.17" cy="271.81" rx="36.66" ry="35.54" transform="translate(-5.14 5.72) rotate(-1.09)"/><ellipse class="cls-7" cx="297.17" cy="271.81" rx="35.44" ry="34.36" transform="translate(-5.14 5.73) rotate(-1.09)"/><path class="cls-8" d="M264.51,274.15a.42.42,0,0,1-.43-.4,30.71,30.71,0,0,1,0-4.07.42.42,0,0,1,.46-.4.44.44,0,0,1,.41.46,30.63,30.63,0,0,0,0,3.95.42.42,0,0,1-.4.46Z"/><path class="cls-8" d="M266.48,261.27l-.16,0a.44.44,0,0,1-.25-.56,32.9,32.9,0,0,1,27.38-20.82,34.42,34.42,0,0,1,6-.14.44.44,0,0,1,.41.46.45.45,0,0,1-.46.41,33.64,33.64,0,0,0-5.85.13A32.06,32.06,0,0,0,266.88,261,.43.43,0,0,1,266.48,261.27Z"/><ellipse class="cls-8" cx="298.02" cy="272.47" rx="29.99" ry="29.08" transform="translate(-5.15 5.74) rotate(-1.09)"/><path class="cls-9" d="M426.07,274.4a46.87,46.87,0,0,0,6.69,11.3l-4,8.35,8,6,8,6,6.9-6.16a46.76,46.76,0,0,0,12.72,3.26l3.08,8.72,9.95-1.42,9.95-1.42.52-9.23a47,47,0,0,0,11.3-6.7l8.35,4,6-8,6-8-6.16-6.9a47.13,47.13,0,0,0,3.26-12.72l8.71-3.09-1.42-9.94-1.42-9.95-9.22-.53a47,47,0,0,0-6.7-11.29l4-8.35-8-6-8-6-6.91,6.16A47.07,47.07,0,0,0,475,209.13l-3.09-8.71L462,201.84l-9.94,1.42-.53,9.23a47.26,47.26,0,0,0-11.3,6.69l-8.34-4-6,8-6,8,6.16,6.9a46.78,46.78,0,0,0-3.27,12.72L414,254l1.42,10,1.42,9.95Zm38.7-53.08a35.21,35.21,0,1,1-29.88,39.83A35.22,35.22,0,0,1,464.77,221.32Z"/><path class="cls-10" d="M144.14,98.86a23.56,23.56,0,0,0,3.31,5.59l-2,4.12,4,3,4,3,3.42-3.05a23.38,23.38,0,0,0,6.29,1.62l1.52,4.31,4.92-.71,4.92-.7.26-4.56a23.56,23.56,0,0,0,5.59-3.31l4.13,2,3-4,3-4-3.05-3.42A23,23,0,0,0,189,92.45l4.31-1.52-.7-4.92-.71-4.92-4.56-.26A23.56,23.56,0,0,0,184,75.24l2-4.13-4-3-4-3-3.42,3a23,23,0,0,0-6.28-1.62l-1.53-4.31-4.92.7-4.92.71-.26,4.56a23.56,23.56,0,0,0-5.59,3.31l-4.12-2-3,4-3,4,3,3.42a23.38,23.38,0,0,0-1.62,6.29l-4.31,1.52.71,4.92.7,4.92Zm19.14-26.25a17.41,17.41,0,1,1-14.77,19.7A17.41,17.41,0,0,1,163.28,72.61Z"/><rect class="cls-11" x="499.65" y="331.32" width="10.64" height="44.73"/><rect class="cls-12" x="499.65" y="331.32" width="10.64" height="44.73" transform="translate(858.65 -151.28) rotate(90)"/><path class="cls-7" d="M182.41,343.21l147-.13a15.22,15.22,0,0,1,15.22,14.44L355.72,570.7a11.23,11.23,0,0,1-11,11.81l-168.52,3.22a10.67,10.67,0,0,1-10.87-10.66l-.19-214.55A17.3,17.3,0,0,1,182.41,343.21Z"/><path class="cls-13" d="M200.81,582.11h0L182,581.88a11.66,11.66,0,0,1-11.48-11.6l0-28.47a.44.44,0,0,1,.43-.44h0a.44.44,0,0,1,.44.44l0,28.47A10.8,10.8,0,0,0,182,581l18.86.22a.44.44,0,0,1,.43.44A.44.44,0,0,1,200.81,582.11Z"/><rect class="cls-13" x="170.44" y="527.94" width="0.87" height="5.48" rx="0.43"/><path class="cls-8" d="M182.86,341.48c20.08,2.71,89.14,11.07,146.22,6.63a4.65,4.65,0,0,1,5,4.38l11.57,214.12a5.35,5.35,0,0,1-5,5.63c-24,1.44-122.89,7-158.16,3.36a4.23,4.23,0,0,1-3.79-4.19L177.16,346.5A5,5,0,0,1,182.86,341.48Z"/><path class="cls-14" d="M185,347c19.33,2.61,85.78,10.65,140.72,6.39a4.47,4.47,0,0,1,4.82,4.21l11.13,206.06a5.13,5.13,0,0,1-4.82,5.41c-23.11,1.39-118.27,6.76-152.21,3.24a4.08,4.08,0,0,1-3.65-4l-1.47-216.45A4.84,4.84,0,0,1,185,347Z"/><path class="cls-15" d="M197.44,367.73l2.09,44.18a2.81,2.81,0,0,0,2.73,2.68c8.18.22,33.67.82,48.07.06a3.14,3.14,0,0,0,3-3c.27-8.28.84-32.4-1.05-42.48a3.55,3.55,0,0,0-3.37-2.88l-48.36-1.64A3,3,0,0,0,197.44,367.73Z"/><circle class="cls-16" cx="225.28" cy="383.5" r="9.5"/><path class="cls-16" d="M210.88,411.4l30.25,0a2.34,2.34,0,0,0,2-3.61c-2.57-4-8-9.92-17.27-9.65a21.11,21.11,0,0,0-17,9.44A2.45,2.45,0,0,0,210.88,411.4Z"/><path class="cls-7" d="M318.42,371.47a1.57,1.57,0,0,0,1.69-1.48,1.71,1.71,0,0,0-1.78-1.51l-53-.9a1.13,1.13,0,0,0-1.16,1.61l.24.69a2.64,2.64,0,0,0,2.32,1.64Z"/><path class="cls-7" d="M265.33,375.81a1.13,1.13,0,0,0-1.15,1.61l.24.69a2.63,2.63,0,0,0,2.32,1.64l51.69,0a1.58,1.58,0,0,0,1.69-1.49,1.73,1.73,0,0,0-1.78-1.51Z"/><path class="cls-7" d="M265.34,384.17a1.13,1.13,0,0,0-1.16,1.61l.25.69a2.64,2.64,0,0,0,2.31,1.64l51.69-.05a1.58,1.58,0,0,0,1.7-1.48,1.72,1.72,0,0,0-1.79-1.51Z"/><path class="cls-7" d="M323.62,428.35a1.5,1.5,0,0,0,1.64-1.48,1.78,1.78,0,0,0-1.84-1.49l-124.21-.87c-1,0-1.25.6-.65,1.34l1,1.25a4.11,4.11,0,0,0,2.83,1.36Z"/><path class="cls-7" d="M199.22,432.74c-1,0-1.25.6-.66,1.35l1,1.25a4.1,4.1,0,0,0,2.82,1.36l121.25-.11a1.51,1.51,0,0,0,1.64-1.48,1.79,1.79,0,0,0-1.84-1.5Z"/><path class="cls-7" d="M215.47,464.57h0L205,464.48a2.86,2.86,0,0,1-2.91-2.42l-.93-8.8a2,2,0,0,1,.46-1.46,2.36,2.36,0,0,1,1.63-.81h0c.88-.06,2.13-.17,3.45-.28,2.91-.25,6.22-.54,8.16-.56h.05a3,3,0,0,1,2.92,2.07c.55,2,.5,5.85.4,9.93A2.62,2.62,0,0,1,215.47,464.57Zm-12.21-12.71a1.45,1.45,0,0,0-1,.5,1.06,1.06,0,0,0-.26.81l.93,8.79a2,2,0,0,0,2.05,1.65l10.49.09h0a1.76,1.76,0,0,0,1.85-1.57c.09-4,.14-7.77-.38-9.68a2.12,2.12,0,0,0-2.08-1.43h0c-1.91,0-5.34.32-8.1.56-1.32.11-2.57.22-3.46.28Z"/><path class="cls-7" d="M225.54,455.41a1.27,1.27,0,0,0-1.29,1.68l.5,1.87a2.35,2.35,0,0,0,2.18,1.67L322,459.55a1.73,1.73,0,0,0,1.7-1.76v-.44a1.81,1.81,0,0,0-1.78-1.74Z"/><path class="cls-17" d="M204.83,454.11h0a1.62,1.62,0,0,1,2.22.61l2.07,3.7a.52.52,0,0,0,.93,0L215.17,447a.57.57,0,0,1,1.09.24,22.53,22.53,0,0,1-6.55,15.7s-3.07-1.19-5.55-6.63A1.69,1.69,0,0,1,204.83,454.11Z"/><path class="cls-7" d="M215.49,487h0L205,487a2.85,2.85,0,0,1-2.91-2.42l-.93-8.8a2,2,0,0,1,.46-1.46,2.31,2.31,0,0,1,1.63-.8h0l3.44-.28c2.77-.24,6.23-.54,8.17-.57h0a3,3,0,0,1,2.92,2.08c.55,2,.5,5.85.4,9.92A2.62,2.62,0,0,1,215.49,487Zm-.62-13.55h0c-1.91,0-5.35.32-8.11.56-1.34.12-2.56.22-3.45.28h0a1.45,1.45,0,0,0-1,.5,1.06,1.06,0,0,0-.26.81l.93,8.8a2,2,0,0,0,2,1.64l10.49.1h0a1.75,1.75,0,0,0,1.84-1.58c.1-4,.15-7.76-.37-9.67A2.12,2.12,0,0,0,214.87,473.49Z"/><path class="cls-18" d="M204.4,475.21c2.21-.15,7-.64,9.27-.67a2,2,0,0,1,2,1.4c.44,1.62.38,4.85.31,7.83a1.75,1.75,0,0,1-1.84,1.6l-8.38-.08a2,2,0,0,1-2-1.62l-.74-7A1.36,1.36,0,0,1,204.4,475.21Z"/><path class="cls-7" d="M225.56,477.88a1.28,1.28,0,0,0-1.29,1.68l.5,1.88A2.35,2.35,0,0,0,227,483.1L322,482a1.72,1.72,0,0,0,1.7-1.76v-.43a1.8,1.8,0,0,0-1.78-1.74Z"/><path class="cls-7" d="M215.51,509.52h0L205,509.43a2.87,2.87,0,0,1-2.91-2.43l-.93-8.79a2,2,0,0,1,.46-1.47,2.35,2.35,0,0,1,1.63-.8h0c.88-.06,2.13-.17,3.45-.28,2.91-.25,6.22-.54,8.16-.56h.05a2.94,2.94,0,0,1,2.92,2.07c.55,2,.5,5.85.4,9.93A2.62,2.62,0,0,1,215.51,509.52ZM203.3,496.81a1.48,1.48,0,0,0-1,.49,1.09,1.09,0,0,0-.26.81l.93,8.8a2,2,0,0,0,2.05,1.65l10.49.09h0a1.76,1.76,0,0,0,1.85-1.58c.09-4,.14-7.76-.38-9.67A2.11,2.11,0,0,0,214.9,496h0c-1.91,0-5.34.32-8.1.55-1.32.12-2.57.23-3.46.29Z"/><path class="cls-18" d="M204.42,497.68c2.21-.15,7-.64,9.27-.67a2,2,0,0,1,2,1.4c.44,1.62.38,4.85.31,7.83a1.74,1.74,0,0,1-1.84,1.6l-8.38-.07a2,2,0,0,1-2-1.63l-.74-7A1.36,1.36,0,0,1,204.42,497.68Z"/><path class="cls-7" d="M225.58,500.36a1.27,1.27,0,0,0-1.29,1.67l.5,1.88a2.34,2.34,0,0,0,2.18,1.66L322,504.49a1.72,1.72,0,0,0,1.7-1.75v-.44a1.8,1.8,0,0,0-1.78-1.74Z"/><path class="cls-7" d="M215.53,532h0L205,531.9a2.85,2.85,0,0,1-2.91-2.42l-.93-8.8a2,2,0,0,1,.46-1.46,2.36,2.36,0,0,1,1.63-.81h0c.88-.06,2.1-.16,3.44-.28,2.77-.24,6.23-.53,8.17-.56h0a3,3,0,0,1,2.92,2.08c.55,2,.5,5.84.4,9.92A2.62,2.62,0,0,1,215.53,532Zm-.62-13.55h0c-1.91,0-5.35.32-8.11.56-1.34.11-2.57.22-3.45.28h0a1.45,1.45,0,0,0-1,.5,1.06,1.06,0,0,0-.26.81l.93,8.8A2,2,0,0,0,205,531l10.49.09h0a1.74,1.74,0,0,0,1.84-1.57c.1-4,.15-7.77-.37-9.68A2.12,2.12,0,0,0,214.91,518.44Z"/><path class="cls-18" d="M204.44,520.16c2.21-.16,7-.65,9.27-.68a2,2,0,0,1,2,1.4c.44,1.62.38,4.85.31,7.84a1.74,1.74,0,0,1-1.84,1.59l-8.38-.07a2,2,0,0,1-2-1.63l-.74-7A1.35,1.35,0,0,1,204.44,520.16Z"/><path class="cls-7" d="M225.6,522.83a1.27,1.27,0,0,0-1.29,1.68l.5,1.88a2.35,2.35,0,0,0,2.18,1.66L322.06,527a1.72,1.72,0,0,0,1.7-1.76v-.44A1.81,1.81,0,0,0,322,523Z"/><path class="cls-7" d="M265,314.07c-5.31-3.69-9.93-3.61-13.18-2.65a6.47,6.47,0,0,0-4.6,6.82l1.41,15.3L265.34,335S275.44,321.31,265,314.07Zm-7.33,12.35a4.16,4.16,0,1,1,4.16-4.16A4.16,4.16,0,0,1,257.69,326.42Z"/><path class="cls-8" d="M250.31,327.14a.43.43,0,0,1-.43-.4l-.22-2.44a.43.43,0,0,1,.39-.47.44.44,0,0,1,.47.39l.23,2.44a.44.44,0,0,1-.4.47Zm-.44-4.78a.43.43,0,0,1-.43-.39l-.17-1.85a6.24,6.24,0,0,1,4.4-6.54,12.55,12.55,0,0,1,6.12-.25.44.44,0,0,1,.34.51.44.44,0,0,1-.52.34,11.66,11.66,0,0,0-5.69.24,5.36,5.36,0,0,0-3.79,5.62l.18,1.85a.44.44,0,0,1-.4.47Z"/><path class="cls-7" d="M225.89,343.45v-7.69a4.7,4.7,0,0,1,4.86-4.7l53.05,1.77a4.57,4.57,0,0,1,4.4,4.29l.45,7.39Z"/><path class="cls-19" d="M243.38,334a.43.43,0,0,1-.43-.43.44.44,0,0,1,.43-.44h2.28a.44.44,0,0,1,.44.43.44.44,0,0,1-.44.44Z"/><path class="cls-8" d="M228.76,341.07a.44.44,0,0,1-.43-.44v-3.11a4.4,4.4,0,0,1,4.39-4.4h8.39a.44.44,0,0,1,.43.44.43.43,0,0,1-.43.43h-8.39a3.53,3.53,0,0,0-3.52,3.53v3.11a.44.44,0,0,1-.44.44Z"/><path class="cls-20" d="M209.27,340.65l92.76-.08a6.84,6.84,0,0,1,6.76,5.68l.08.45a5.89,5.89,0,0,1-5.8,6.9l-95.16.08a3.82,3.82,0,0,1-3.83-4l.2-4.26A5,5,0,0,1,209.27,340.65Z"/><path class="cls-21" d="M104.27,584.29c5.8.26,11.41.1,15.15-.1-3.41-2.42-11.27-7.7-17.84-9.81l-4.51-.27s-1.53,2.33-2.08,7.65C95.74,582.69,97.93,584,104.27,584.29Z"/><path class="cls-21" d="M119.47,584.23l0,0c-3.74.2-9.35.36-15.15.1-6.34-.29-8.53-1.6-9.28-2.53,0,.25,0,.49-.07.75a2.11,2.11,0,0,0,1.94,2.28c4.75.36,16.52,1.17,22.19.87A.79.79,0,0,0,119.47,584.23Z"/><path class="cls-21" d="M62.82,582.74c-.43-2.72-1.11-6.66-1.63-7.66-.83-1.58-3.65,0-3.65,0a7.52,7.52,0,0,0-2.9,2.46c-.58,1-2.19,3.78-3.28,5.68a1.36,1.36,0,0,0-.17.67l11.31.4A2.24,2.24,0,0,0,62.82,582.74Z"/><path class="cls-21" d="M51.19,583.89a1.29,1.29,0,0,0,1.26,1.25l8,.22a2.25,2.25,0,0,0,2-1.07Z"/><path class="cls-22" d="M63.68,566c-.09.33-1.56,7.41-2.2,10.52A1.77,1.77,0,0,1,59.66,578c-.48,0-1-.07-1.62-.14a2.15,2.15,0,0,1-1.87-2c-.1-2.73-.15-8,.85-10C58.4,563,63.68,566,63.68,566Z"/><path class="cls-23" d="M96.18,568.06c.63,0-.25,3.24.7,6.44a1.64,1.64,0,0,0,1.5,1.3c.49,0,1.07,0,1.66-.06a1.81,1.81,0,0,0,1.67-1.63l.77-8.3Z"/><path class="cls-24" d="M113.71,479.83c-.28,1.37-10.15,58.95-10.75,88.75a1,1,0,0,1-.88,1,20,20,0,0,1-6.06,0,.73.73,0,0,1-.59-.66c-.34-5.55-3.12-52.5.28-74.6,0,0-28.07,59.08-32.32,75.37a.86.86,0,0,1-.88.64,21.15,21.15,0,0,1-5.69-1,1.48,1.48,0,0,1-.94-1.74c2.38-9.75,19-76.93,30.36-91.73Z"/><path class="cls-25" d="M95.71,494.64a.36.36,0,0,1-.25-.11.37.37,0,0,1,0-.52l3.76-3.84a.37.37,0,1,1,.53.51L96,494.53A.4.4,0,0,1,95.71,494.64Z"/><path class="cls-7" d="M147.65,407.92a35.78,35.78,0,0,1-17.89-.18c-8.22-2.16-24.39-5.71-35.4-3.73l-24,100.54A4.74,4.74,0,0,0,73.1,510c11.27,4.81,22.42,8.22,33.2,7.23a4.6,4.6,0,0,0,4.14-4.16l3.81-41.19,17.23-42.38s22.92-3.3,35.31-18.37a61.34,61.34,0,0,1-6.92-9.39A30,30,0,0,1,147.65,407.92Z"/><path class="cls-26" d="M173.45,379.27,170.54,378s.15,14.52-10.67,23.76a61.34,61.34,0,0,0,6.92,9.39C172.9,403.71,176.46,393.42,173.45,379.27Z"/><path class="cls-27" d="M112.41,388s-2.19,13.06-2.48,17.16c0,0,10.57,2.92,13.33,1.36l-.35-15.8Z"/><path class="cls-8" d="M154.09,423a1.93,1.93,0,0,1,2,2.24l-8.59,54a1.93,1.93,0,0,1-1.83,1.63l-86,3.59a1.93,1.93,0,0,1-2-1.85L55.6,431.3a2,2,0,0,1,1.81-2Z"/><path class="cls-28" d="M147.23,419.28a2,2,0,0,1,2.21,2.08l-1.75,58.52a2,2,0,0,1-1.95,2l-85.69,3.58a2,2,0,0,1-2.1-1.8l-6-53.78a2,2,0,0,1,1.84-2.24Z"/><path class="cls-29" d="M138.66,416.3a2.51,2.51,0,0,1,2.93,2.23l5.79,60.61a2.51,2.51,0,0,1-2.39,2.74l-84.4,3.53A2.52,2.52,0,0,1,58,483.08L54.46,433.2a2.5,2.5,0,0,1,2.07-2.64Z"/><path class="cls-7" d="M103.61,419.59,94.36,404S75,420.59,69.16,443.63l10.26,6.45C83.63,442.56,91,432.55,103.61,419.59Z"/><path class="cls-30" d="M83.38,484.28a2.51,2.51,0,0,1-2.23-1.46,62.88,62.88,0,0,0-4.19-8,5.27,5.27,0,0,1,3.29-.09c2.1.49,3.88-.37,3.94-1.54L74.36,469c-.35-1-1.78-6.64,5.06-18.87l-10.26-6.45A49.05,49.05,0,0,0,70,471.71s1.93,11.26,5.85,13.54,9.87-.92,9.87-.92Z"/><path class="cls-31" d="M124.29,376s3.51,8.07,3.75,12.3,1.14,7-3.75,7.84-9-1.59-11.26-5.81c0,0-3.5-6.5-2.72-9.16S124.29,376,124.29,376Z"/><path class="cls-21" d="M114.7,387.25h.62s-2.55-5.23-.31-6.15,11.12-2.73,13-5.88a5.86,5.86,0,0,0-2.27-8.06.33.33,0,0,0-.42.15l-.2.39a.33.33,0,0,1-.61-.06h0a.33.33,0,0,0-.6-.1c-.59.95-2.17,2.48-6.43,3.27-6,1.11-10,3.56-10.14,7.73a.34.34,0,0,1-.52.28c-.44-.28-1.16-.4-2.11.4-1.66,1.39-1,5,2.66,8a.33.33,0,0,1,0,.53c-.66.43-1.64,1.45.91,2.82s4.14,1.24,4.73,1.09a.34.34,0,0,0,.25-.35l-.23-3.7a.33.33,0,0,1,.33-.35Z"/><path class="cls-31" d="M114.85,388s-1.34-5.15-3.65-3.71,1.2,5.78,3.06,6Z"/><path class="cls-32" d="M170.17,380.57,165.75,372l5.68-14.94s3.92,2,2.27,5.44.2,7.41.41,8.88S176.17,380.43,170.17,380.57Z"/><path class="cls-7" d="M321.22,256.58a20.64,20.64,0,0,1-.06,2.08c0,.69-.11,1.37-.21,2.06a26.4,26.4,0,0,1-.92,4.08c-.21.66-.46,1.32-.74,2a20.14,20.14,0,0,1-1,1.91,13,13,0,0,1-2.83,3.33l-.22.18-.23.16c-.15.11-.3.23-.46.33a9.9,9.9,0,0,1-1,.57l-.26.12-.13.06-.14.06-.53.2c-.18.07-.37.12-.55.18s-.36.11-.55.15a17.22,17.22,0,0,1-4.44.41,36.45,36.45,0,0,1-4.34-.41c-1.42-.23-2.82-.51-4.21-.81-2.77-.61-5.5-1.31-8.18-1.8-.67-.12-1.33-.22-2-.3l-.49-.05-.49,0-.49,0h-.49a13.67,13.67,0,0,0-3.77.45,9.71,9.71,0,0,0-1.67.67,8.47,8.47,0,0,0-1.46,1,10.55,10.55,0,0,0-2.3,2.84c-.31.56-.6,1.14-.86,1.74l-.2.45-.18.46-.18.47c-.06.15-.11.31-.17.47-.12.32-.22.64-.33,1s-.2.65-.31,1l-.3,1c-.1.33-.19.66-.31,1h0a.08.08,0,0,1-.09,0,.06.06,0,0,1-.05-.06c0-.35-.07-.7-.1-1.05s0-.7,0-1.05a18.63,18.63,0,0,1,.1-2.11,17,17,0,0,1,.34-2.12,14.46,14.46,0,0,1,.66-2.09,11.93,11.93,0,0,1,1-2l.33-.47.36-.46a8.18,8.18,0,0,1,.81-.86,9.88,9.88,0,0,1,4.13-2.3,15.82,15.82,0,0,1,4.55-.54h.56l.57,0,.56,0,.56.06c.74.09,1.46.22,2.17.35,1.42.28,2.81.61,4.18,1l4.08,1c1.35.34,2.69.66,4,.91a33.35,33.35,0,0,0,4,.56,15.09,15.09,0,0,0,3.93-.17,3.56,3.56,0,0,0,.47-.1c.15,0,.31-.06.46-.11l.45-.15.12,0,.1,0,.22-.09a8.09,8.09,0,0,0,.84-.4l.4-.25.21-.13.19-.14a11,11,0,0,0,1.46-1.27,15.42,15.42,0,0,0,1.25-1.51,16.84,16.84,0,0,0,1-1.68,20,20,0,0,0,.86-1.81c.26-.63.49-1.26.71-1.9s.4-1.29.56-1.95a30.28,30.28,0,0,0,.75-4h0a.08.08,0,0,1,.08-.07A.1.1,0,0,1,321.22,256.58Z"/><path class="cls-7" d="M302.43,273.09l0,0-4.06-6.55a.34.34,0,0,1,.12-.48.36.36,0,0,1,.49.12L303,272.7a.34.34,0,0,1-.12.48A.37.37,0,0,1,302.43,273.09Z"/><path class="cls-7" d="M306.92,273.61l0,0-7.2-10.91a.35.35,0,0,1,.11-.49.37.37,0,0,1,.49.11l7.2,10.92a.34.34,0,0,1-.1.48A.37.37,0,0,1,306.92,273.61Z"/><path class="cls-7" d="M300.35,258.52a.36.36,0,0,1,.06-.5.38.38,0,0,1,.51.08l11.22,14.42h0a.35.35,0,0,1-.05.5.38.38,0,0,1-.52-.08l-11.22-14.42Z"/><path class="cls-7" d="M302.11,255.67a.35.35,0,0,1,.06-.49.37.37,0,0,1,.51.06L315.39,271a.34.34,0,0,1-.05.49.37.37,0,0,1-.51-.06l-12.72-15.8Z"/><path class="cls-7" d="M317,269.21h0l-11.89-16.1a.34.34,0,0,1,.07-.49.38.38,0,0,1,.51.08l11.89,16.1a.34.34,0,0,1-.08.49A.36.36,0,0,1,317,269.21Z"/><path class="cls-7" d="M318.84,265.89h0L308.6,251.77a.33.33,0,0,1,.08-.48.36.36,0,0,1,.5.08l10.24,14.11a.34.34,0,0,1-.09.48A.36.36,0,0,1,318.84,265.89Z"/><path class="cls-7" d="M319.74,262.26v0l-7.12-10.74a.36.36,0,0,1,.11-.48.36.36,0,0,1,.49.1l7.12,10.74a.35.35,0,0,1-.11.48A.37.37,0,0,1,319.74,262.26Z"/><path class="cls-7" d="M286.9,270a.34.34,0,0,1,0-.45.37.37,0,0,1,.51,0l9.7,9.08a.35.35,0,0,1,0,.5.36.36,0,0,1-.5,0l-9.7-9.08Z"/><path class="cls-7" d="M283.76,270a.35.35,0,0,1,.05-.48.37.37,0,0,1,.51.05l11.44,13.27a.34.34,0,0,1,0,.49.38.38,0,0,1-.51,0L283.77,270Z"/><path class="cls-7" d="M280.52,270.87a.34.34,0,0,1,.06-.48.37.37,0,0,1,.51.06l13.15,16.35a.34.34,0,0,1-.06.49.36.36,0,0,1-.5-.06l-13.16-16.35Z"/><path class="cls-7" d="M290.72,290.19h0l-6.46-8.71-4.43-6c-.61-.82-1.11-1.51-1.46-2l-.4-.56c-.17-.24-.31-.44-.1-.65a.36.36,0,0,1,.58.1c.41.63,9.4,12.75,12.85,17.4a.34.34,0,0,1-.08.49A.35.35,0,0,1,290.72,290.19ZM278.43,272.7l-.06.07A.2.2,0,0,0,278.43,272.7Zm0-.3a.43.43,0,0,1,0,.11A.36.36,0,0,0,278.45,272.4Z"/><path class="cls-7" d="M286.56,291.56l0,0-10.48-16.82a.35.35,0,0,1,.12-.48.37.37,0,0,1,.49.12l10.49,16.82a.34.34,0,0,1-.12.48A.35.35,0,0,1,286.56,291.56Z"/><path class="cls-7" d="M281.13,292.19l0-.06-6.38-13.58a.34.34,0,0,1,.17-.47.37.37,0,0,1,.48.18l6.38,13.58a.33.33,0,0,1-.17.46A.37.37,0,0,1,281.13,292.19Z"/><path class="cls-7" d="M318.61,252.58a26.53,26.53,0,0,0-4.3-.62,18.92,18.92,0,0,0-4.2.2,13.32,13.32,0,0,0-2,.49,12.46,12.46,0,0,0-1.83.79,10.74,10.74,0,0,0-3,2.5,12.84,12.84,0,0,0-2,3.43c-.14.31-.25.63-.37.95s-.21.64-.3,1c-.2.65-.35,1.33-.49,2-.06.34-.13.68-.18,1l-.08.51-.07.53-.29,2.12-.57,4.24c-.4,2.83-.81,5.68-1.49,8.5a29,29,0,0,1-1.31,4.19,14.57,14.57,0,0,1-2.27,3.85,10.76,10.76,0,0,1-3.58,2.77,14.4,14.4,0,0,1-4.32,1.23,24.38,24.38,0,0,1-4.43.19c-.74,0-1.47-.07-2.2-.14s-1.46-.16-2.19-.26c0,0-.07,0-.06-.08a.07.07,0,0,1,.07-.06c1.46.07,2.92.1,4.37.06.73,0,1.45-.08,2.17-.15s1.43-.18,2.13-.32a13.73,13.73,0,0,0,4-1.37,9.93,9.93,0,0,0,3.09-2.63,13.5,13.5,0,0,0,1.91-3.6,27.12,27.12,0,0,0,1.11-4c.29-1.37.5-2.77.7-4.17s.37-2.81.53-4.23l.5-4.25c.09-.71.17-1.42.27-2.13l.06-.53L298,264c.05-.36.12-.72.18-1.09.14-.72.3-1.45.51-2.16.09-.36.22-.71.33-1.07s.25-.71.4-1.05a14.39,14.39,0,0,1,2.32-3.93,11.79,11.79,0,0,1,1.68-1.63,11.35,11.35,0,0,1,2-1.26,12.27,12.27,0,0,1,4.5-1.19,15.64,15.64,0,0,1,4.54.33,17.24,17.24,0,0,1,2.16.61,12.79,12.79,0,0,1,2.05.88.08.08,0,0,1,0,.1.07.07,0,0,1-.08,0Z"/><path class="cls-33" d="M273.66,283.91l-.09-.41c-.05-.36-.08-.71-.1-1.07v-.23q0-.43,0-.87a20.31,20.31,0,0,1,.1-2.17,17.81,17.81,0,0,1,.36-2.18,15.43,15.43,0,0,1,.68-2.18,12.66,12.66,0,0,1,1.08-2.1l.34-.49.38-.49a10.68,10.68,0,0,1,.87-.92,10.33,10.33,0,0,1,4.36-2.43,16.15,16.15,0,0,1,4.44-.56l.84,0a5.15,5.15,0,0,1,.59,0l.57,0,.57.07c.72.09,1.45.21,2.22.36,1.58.3,3.08.68,4.21,1l4.07,1c1.62.41,2.86.68,4,.91a34.25,34.25,0,0,0,4,.54c.46,0,.91.05,1.36.05a14.14,14.14,0,0,0,2.43-.2l.32-.07.31-.07.23-.06.57-.19.28-.11a6.06,6.06,0,0,0,.57-.27l.23-.12.56-.35.16-.12a10.54,10.54,0,0,0,1.39-1.21,13.61,13.61,0,0,0,1.2-1.45,18.49,18.49,0,0,0,1-1.62c.3-.58.59-1.18.83-1.76s.48-1.23.69-1.86.39-1.26.55-1.91a30.79,30.79,0,0,0,.74-3.94l.05-.5.57-.06a.63.63,0,0,1,.63.6,20.12,20.12,0,0,1,0,2.13c-.05.75-.12,1.44-.22,2.11a26.27,26.27,0,0,1-.94,4.17c-.21.66-.47,1.34-.76,2a21.15,21.15,0,0,1-1,2,13.38,13.38,0,0,1-3,3.48l-.21.18-.41.3-.33.23-.22.13a8.08,8.08,0,0,1-.87.48l-.37.18-.71.27a2.83,2.83,0,0,1-.41.14l-.29.08a3.92,3.92,0,0,1-.49.13,17,17,0,0,1-3.95.44H307a37.29,37.29,0,0,1-4.4-.42c-1.57-.25-3.1-.57-4.25-.82-1-.21-1.94-.43-2.9-.66-1.81-.42-3.53-.81-5.26-1.13-.66-.12-1.31-.22-1.95-.29l-.49-.05-.46,0-.47,0h-.63a12.55,12.55,0,0,0-3.46.43,9.34,9.34,0,0,0-1.57.62,8.49,8.49,0,0,0-1.36.92,9.86,9.86,0,0,0-2.18,2.69c-.29.52-.57,1.09-.83,1.68l-.19.45c-.06.14-.12.28-.17.43l-.19.48-.16.46c-.11.3-.21.59-.31.89s-.13.41-.19.58-.09.3-.14.45l-.36,1.18c-.08.27-.16.54-.25.8l-.12.38-.48.05h-.09Z"/><path class="cls-7" d="M321.22,256.58a20.64,20.64,0,0,1-.06,2.08c0,.69-.11,1.37-.21,2.06a26.4,26.4,0,0,1-.92,4.08c-.21.66-.46,1.32-.74,2a20.14,20.14,0,0,1-1,1.91,13,13,0,0,1-2.83,3.33l-.22.18-.23.16c-.15.11-.3.23-.46.33a9.9,9.9,0,0,1-1,.57l-.26.12-.13.06-.14.06-.53.2c-.18.07-.37.12-.55.18s-.36.11-.55.15a17.22,17.22,0,0,1-4.44.41,36.45,36.45,0,0,1-4.34-.41c-1.42-.23-2.82-.51-4.21-.81-2.77-.61-5.5-1.31-8.18-1.8-.67-.12-1.33-.22-2-.3l-.49-.05-.49,0-.49,0h-.49a13.67,13.67,0,0,0-3.77.45,9.71,9.71,0,0,0-1.67.67,8.47,8.47,0,0,0-1.46,1,10.55,10.55,0,0,0-2.3,2.84c-.31.56-.6,1.14-.86,1.74l-.2.45-.18.46-.18.47c-.06.15-.11.31-.17.47-.12.32-.22.64-.33,1s-.2.65-.31,1l-.3,1c-.1.33-.19.66-.31,1h0a.08.08,0,0,1-.09,0,.06.06,0,0,1-.05-.06c0-.35-.07-.7-.1-1.05s0-.7,0-1.05a18.63,18.63,0,0,1,.1-2.11,17,17,0,0,1,.34-2.12,14.46,14.46,0,0,1,.66-2.09,11.93,11.93,0,0,1,1-2l.33-.47.36-.46a8.18,8.18,0,0,1,.81-.86,9.88,9.88,0,0,1,4.13-2.3,15.82,15.82,0,0,1,4.55-.54h.56l.57,0,.56,0,.56.06c.74.09,1.46.22,2.17.35,1.42.28,2.81.61,4.18,1l4.08,1c1.35.34,2.69.66,4,.91a33.35,33.35,0,0,0,4,.56,15.09,15.09,0,0,0,3.93-.17,3.56,3.56,0,0,0,.47-.1c.15,0,.31-.06.46-.11l.45-.15.12,0,.1,0,.22-.09a8.09,8.09,0,0,0,.84-.4l.4-.25.21-.13.19-.14a11,11,0,0,0,1.46-1.27,15.42,15.42,0,0,0,1.25-1.51,16.84,16.84,0,0,0,1-1.68,20,20,0,0,0,.86-1.81c.26-.63.49-1.26.71-1.9s.4-1.29.56-1.95a30.28,30.28,0,0,0,.75-4h0a.08.08,0,0,1,.08-.07A.1.1,0,0,1,321.22,256.58Z"/><path class="cls-7" d="M302.43,273.09l0,0-4.06-6.55a.34.34,0,0,1,.12-.48.36.36,0,0,1,.49.12L303,272.7a.34.34,0,0,1-.12.48A.37.37,0,0,1,302.43,273.09Z"/><path class="cls-7" d="M306.92,273.61l0,0-7.2-10.91a.35.35,0,0,1,.11-.49.37.37,0,0,1,.49.11l7.2,10.92a.34.34,0,0,1-.1.48A.37.37,0,0,1,306.92,273.61Z"/><path class="cls-7" d="M300.35,258.52a.36.36,0,0,1,.06-.5.38.38,0,0,1,.51.08l11.22,14.42h0a.35.35,0,0,1-.05.5.38.38,0,0,1-.52-.08l-11.22-14.42Z"/><path class="cls-7" d="M302.11,255.67a.35.35,0,0,1,.06-.49.37.37,0,0,1,.51.06L315.39,271a.34.34,0,0,1-.05.49.37.37,0,0,1-.51-.06l-12.72-15.8Z"/><path class="cls-7" d="M317,269.21h0l-11.89-16.1a.34.34,0,0,1,.07-.49.38.38,0,0,1,.51.08l11.89,16.1a.34.34,0,0,1-.08.49A.36.36,0,0,1,317,269.21Z"/><path class="cls-7" d="M318.84,265.89h0L308.6,251.77a.33.33,0,0,1,.08-.48.36.36,0,0,1,.5.08l10.24,14.11a.34.34,0,0,1-.09.48A.36.36,0,0,1,318.84,265.89Z"/><path class="cls-7" d="M319.74,262.26v0l-7.12-10.74a.36.36,0,0,1,.11-.48.36.36,0,0,1,.49.1l7.12,10.74a.35.35,0,0,1-.11.48A.37.37,0,0,1,319.74,262.26Z"/><path class="cls-7" d="M286.9,270a.34.34,0,0,1,0-.45.37.37,0,0,1,.51,0l9.7,9.08a.35.35,0,0,1,0,.5.36.36,0,0,1-.5,0l-9.7-9.08Z"/><path class="cls-7" d="M283.76,270a.35.35,0,0,1,.05-.48.37.37,0,0,1,.51.05l11.44,13.27a.34.34,0,0,1,0,.49.38.38,0,0,1-.51,0L283.77,270Z"/><path class="cls-7" d="M280.52,270.87a.34.34,0,0,1,.06-.48.37.37,0,0,1,.51.06l13.15,16.35a.34.34,0,0,1-.06.49.36.36,0,0,1-.5-.06l-13.16-16.35Z"/><path class="cls-7" d="M290.72,290.19h0l-6.46-8.71-4.43-6c-.61-.82-1.11-1.51-1.46-2l-.4-.56c-.17-.24-.31-.44-.1-.65a.36.36,0,0,1,.58.1c.41.63,9.4,12.75,12.85,17.4a.34.34,0,0,1-.08.49A.35.35,0,0,1,290.72,290.19ZM278.43,272.7l-.06.07A.2.2,0,0,0,278.43,272.7Zm0-.3a.43.43,0,0,1,0,.11A.36.36,0,0,0,278.45,272.4Z"/><path class="cls-7" d="M286.56,291.56l0,0-10.48-16.82a.35.35,0,0,1,.12-.48.37.37,0,0,1,.49.12l10.49,16.82a.34.34,0,0,1-.12.48A.35.35,0,0,1,286.56,291.56Z"/><path class="cls-7" d="M281.13,292.19l0-.06-6.38-13.58a.34.34,0,0,1,.17-.47.37.37,0,0,1,.48.18l6.38,13.58a.33.33,0,0,1-.17.46A.37.37,0,0,1,281.13,292.19Z"/><path class="cls-34" d="M282.68,293l-1.21,0c-.75,0-1.5-.07-2.24-.15s-1.47-.16-2.2-.26l-.23,0-.19-.21-.14-.19,0-.28a.62.62,0,0,1,.62-.54c1.08.05,2,.08,3,.08l1.4,0c.71,0,1.42-.07,2.12-.14s1.41-.18,2.08-.31a13.42,13.42,0,0,0,3.81-1.32,9.21,9.21,0,0,0,2.92-2.48,13.47,13.47,0,0,0,1.83-3.46,26.65,26.65,0,0,0,1.09-3.93c.28-1.38.5-2.81.69-4.14s.36-2.8.53-4.21l.5-4.25c.08-.72.17-1.43.26-2.14l.07-.53.08-.56c0-.26.08-.53.13-.8l.05-.3c.12-.62.29-1.42.52-2.23.07-.26.16-.53.25-.81l.09-.27.08-.23c.11-.3.21-.59.33-.87a15.42,15.42,0,0,1,2.41-4.07,11.88,11.88,0,0,1,3.85-3,13,13,0,0,1,4.71-1.25c.38,0,.77,0,1.15,0a17.51,17.51,0,0,1,3.55.38,20.39,20.39,0,0,1,2.23.63,14.58,14.58,0,0,1,2.13.92l.2.11.1.26.06.22-.11.26a.64.64,0,0,1-.56.33h-.14a25,25,0,0,0-4.2-.61c-.42,0-.84,0-1.25,0a16.68,16.68,0,0,0-2.82.23,12.57,12.57,0,0,0-1.9.47,11.8,11.8,0,0,0-1.75.75,11,11,0,0,0-1.54,1,10.29,10.29,0,0,0-1.32,1.32,12.33,12.33,0,0,0-1.95,3.28c-.1.24-.19.47-.27.71l-.08.22-.08.24c-.08.23-.15.45-.21.69-.21.69-.36,1.38-.48,2l-.06.3-.12.69-.08.52-.93,6.87c-.4,2.8-.8,5.68-1.5,8.56a30.11,30.11,0,0,1-1.33,4.27,15.2,15.2,0,0,1-2.36,4,11.48,11.48,0,0,1-3.77,2.91,15,15,0,0,1-4.48,1.29A24.09,24.09,0,0,1,282.68,293Z"/><path class="cls-7" d="M318.61,252.58a26.53,26.53,0,0,0-4.3-.62,18.92,18.92,0,0,0-4.2.2,13.32,13.32,0,0,0-2,.49,12.46,12.46,0,0,0-1.83.79,10.74,10.74,0,0,0-3,2.5,12.84,12.84,0,0,0-2,3.43c-.14.31-.25.63-.37.95s-.21.64-.3,1c-.2.65-.35,1.33-.49,2-.06.34-.13.68-.18,1l-.08.51-.07.53-.29,2.12-.57,4.24c-.4,2.83-.81,5.68-1.49,8.5a29,29,0,0,1-1.31,4.19,14.57,14.57,0,0,1-2.27,3.85,10.76,10.76,0,0,1-3.58,2.77,14.4,14.4,0,0,1-4.32,1.23,24.38,24.38,0,0,1-4.43.19c-.74,0-1.47-.07-2.2-.14s-1.46-.16-2.19-.26c0,0-.07,0-.06-.08a.07.07,0,0,1,.07-.06c1.46.07,2.92.1,4.37.06.73,0,1.45-.08,2.17-.15s1.43-.18,2.13-.32a13.73,13.73,0,0,0,4-1.37,9.93,9.93,0,0,0,3.09-2.63,13.5,13.5,0,0,0,1.91-3.6,27.12,27.12,0,0,0,1.11-4c.29-1.37.5-2.77.7-4.17s.37-2.81.53-4.23l.5-4.25c.09-.71.17-1.42.27-2.13l.06-.53L298,264c.05-.36.12-.72.18-1.09.14-.72.3-1.45.51-2.16.09-.36.22-.71.33-1.07s.25-.71.4-1.05a14.39,14.39,0,0,1,2.32-3.93,11.79,11.79,0,0,1,1.68-1.63,11.35,11.35,0,0,1,2-1.26,12.27,12.27,0,0,1,4.5-1.19,15.64,15.64,0,0,1,4.54.33,17.24,17.24,0,0,1,2.16.61,12.79,12.79,0,0,1,2.05.88.08.08,0,0,1,0,.1.07.07,0,0,1-.08,0Z"/><ellipse class="cls-35" cx="362.89" cy="447.97" rx="34.23" ry="36.25" transform="translate(-48.15 43.73) rotate(-6.47)"/><ellipse class="cls-7" cx="362.89" cy="447.97" rx="33.09" ry="35.05" transform="translate(-48.15 43.72) rotate(-6.47)"/><path class="cls-4" d="M332.38,450.14a.43.43,0,0,1-.43-.41,33.65,33.65,0,0,1,0-4.14.44.44,0,0,1,.46-.41.44.44,0,0,1,.41.46,34,34,0,0,0,0,4,.43.43,0,0,1-.4.46Z"/><path class="cls-4" d="M334.13,437a.35.35,0,0,1-.14,0,.43.43,0,0,1-.27-.55c4-11.66,13.78-19.72,25.48-21a29.23,29.23,0,0,1,5.61-.11.44.44,0,0,1-.06.87,28.49,28.49,0,0,0-5.46.1c-11.36,1.29-20.84,9.13-24.75,20.46A.44.44,0,0,1,334.13,437Z"/><ellipse class="cls-8" cx="363.69" cy="448.65" rx="28.01" ry="29.66" transform="translate(-48.22 43.82) rotate(-6.47)"/><path class="cls-36" d="M367.84,432.61l0-9.64h-8.77V432a22.63,22.63,0,0,1-4.45,13.48l-11.56,15.58a4.79,4.79,0,0,0-.93,2.82h0a4.73,4.73,0,0,0,4.72,4.72h33.31a4.72,4.72,0,0,0,4.72-4.72h0a4.8,4.8,0,0,0-.93-2.83l-12-16A20.77,20.77,0,0,1,367.84,432.61Z"/><path class="cls-37" d="M346.84,467.46A3.55,3.55,0,0,1,344,461.8l11.56-15.58A24,24,0,0,0,360.24,432v-7.88h6.41l0,8.46A22.1,22.1,0,0,0,371,445.74l12,16.06a3.59,3.59,0,0,1,.7,2.12,3.55,3.55,0,0,1-3.54,3.54Z"/><path class="cls-38" d="M368.08,424.71H358.8a1.36,1.36,0,0,1-1.36-1.36h0a1.37,1.37,0,0,1,1.29-1.36l9.28-.5a1.36,1.36,0,0,1,1.43,1.36v.5A1.36,1.36,0,0,1,368.08,424.71Z"/><path class="cls-7" d="M344,461.8a3.55,3.55,0,0,0,2.84,5.66h33.31a3.55,3.55,0,0,0,3.54-3.54,3.59,3.59,0,0,0-.7-2.12l-5.35-7.17H349.32Z"/><ellipse class="cls-39" cx="357.07" cy="344.04" rx="40.85" ry="43.26" transform="translate(-36.48 42.41) rotate(-6.47)"/><ellipse class="cls-7" cx="357.07" cy="344.04" rx="39.49" ry="41.82" transform="translate(-36.48 42.41) rotate(-6.47)"/><path class="cls-4" d="M320.66,346.54a.44.44,0,0,1-.43-.41,40.55,40.55,0,0,1,0-4.93.43.43,0,0,1,.46-.41.44.44,0,0,1,.41.46,38.93,38.93,0,0,0,0,4.83.45.45,0,0,1-.41.46Z"/><path class="cls-4" d="M322.75,330.88l-.14,0a.44.44,0,0,1-.27-.56c4.78-13.87,16.4-23.47,30.33-25.05a35.62,35.62,0,0,1,6.69-.12.44.44,0,1,1-.07.87,34.65,34.65,0,0,0-6.52.11c-13.59,1.54-24.93,10.92-29.61,24.48A.43.43,0,0,1,322.75,330.88Z"/><ellipse class="cls-8" cx="358.02" cy="344.85" rx="33.42" ry="35.39" transform="translate(-36.56 42.52) rotate(-6.47)"/><path class="cls-40" d="M379.16,330.37H368.91V320.12a4.83,4.83,0,0,0-4.83-4.83H349.71a4.83,4.83,0,0,0-4.83,4.83v10.25H334.63a4.83,4.83,0,0,0-4.83,4.83v14.38a4.83,4.83,0,0,0,4.83,4.83h10.25v10.25a4.83,4.83,0,0,0,4.83,4.83h14.37a4.83,4.83,0,0,0,4.83-4.83V354.41h10.25a4.83,4.83,0,0,0,4.83-4.83V335.2A4.83,4.83,0,0,0,379.16,330.37Z"/><path class="cls-7" d="M349.71,366.64a2,2,0,0,1-2-2V351.55h-13.1a2,2,0,0,1-2-2V335.2a2,2,0,0,1,2-2h13.1v-13.1a2,2,0,0,1,2-2h14.37a2,2,0,0,1,2,2v13.1h13.1a2,2,0,0,1,2,2v14.38a2,2,0,0,1-2,2h-13.1v13.11a2,2,0,0,1-2,2Z"/><circle class="cls-8" cx="234.93" cy="178.68" r="59.81"/><path class="cls-41" d="M234.93,238.48a59.25,59.25,0,0,1-24.72-5.33,59.81,59.81,0,1,1,49.44,0A59.28,59.28,0,0,1,234.93,238.48Zm0-116.45a56.66,56.66,0,0,0-23.41,108.25,56.79,56.79,0,0,0,46.82,0A56.66,56.66,0,0,0,234.93,122Z"/><text class="cls-42" transform="translate(194.03 210.24)">OPD R<tspan class="cls-43" x="45.58" y="0">E</tspan><tspan x="53.88" y="0">A</tspan><tspan class="cls-44" x="63.95" y="0">D</tspan><tspan x="74.18" y="0">Y</tspan></text><path class="cls-7" d="M209.52,165.39a26.55,26.55,0,0,0,25,26.5.58.58,0,0,0,.61-.58V139.47a.58.58,0,0,0-.61-.58A26.55,26.55,0,0,0,209.52,165.39Z"/><path class="cls-7" d="M262.54,163.45A26.55,26.55,0,0,0,238.39,139a.58.58,0,0,0-.63.57v24a.58.58,0,0,0,.58.58H262A.57.57,0,0,0,262.54,163.45Z"/><path class="cls-8" d="M240.65,160.6V142.89a.57.57,0,0,1,.7-.56,23.59,23.59,0,0,1,17.86,18.16.57.57,0,0,1-.56.69H241.23A.58.58,0,0,1,240.65,160.6Z"/><path class="cls-7" d="M238.39,191.83a26.55,26.55,0,0,0,24.15-24.5.58.58,0,0,0-.57-.62H238.34a.58.58,0,0,0-.58.58v24A.58.58,0,0,0,238.39,191.83Z"/><path class="cls-8" d="M237.76,164.07V138.9c-.56,0-1.12-.05-1.69-.05h-.95v53.06l.95,0c.57,0,1.13,0,1.69-.06V164.07Z"/><path class="cls-8" d="M262.58,164.07h0v0Z"/><path class="cls-8" d="M262.58,166.69v0h0Z"/><path class="cls-8" d="M262.58,164.09v0H237.76v2.64h24.82v0c0-.43,0-.86,0-1.3S262.6,164.52,262.58,164.09Z"/><rect class="cls-45" x="331.8" y="153.84" width="61.77" height="7.81"/><rect class="cls-46" x="331.8" y="186.59" width="56.7" height="7.81"/><rect class="cls-47" x="331.8" y="170.22" width="49.06" height="7.81"/><circle class="cls-8" cx="309.08" cy="96.12" r="2.26"/></svg>