<svg xmlns="http://www.w3.org/2000/svg" id="Layer_1" data-name="Layer 1" viewBox="203.9 103.9 238.58 230.32"><defs><style>.cls-1{fill:#d1d3d4;}</style></defs><path class="cls-1" d="M363.84,103.93c1.47-.18,2.15.46,2.13,1.95,0,1.94-.05,3.9,0,5.84.14,2.82,1.58,4.37,4,4.4s3.85-1.42,4.08-4.28a40.91,40.91,0,0,0,0-5.31c-.13-2.14.74-2.83,2.83-2.57a64.07,64.07,0,0,1,34.19,14.64c13.13,11.07,20.54,25.25,22.69,42.26.26,2.08-.26,3-2.46,2.9-1.85-.1-3.72-.07-5.58,0-2.55.12-4.42,1.94-4.35,4.11s1.73,3.57,4.38,3.67c1.95.07,3.9,0,5.85.06s2.46.92,2.2,2.72c-3.84,26.73-18.32,44.88-43.7,54.23a60.57,60.57,0,0,1-13.47,2.95c-1.87.24-2.66-.3-2.57-2.21.07-1.59,0-3.19,0-4.78-.07-3.27-1.61-5.28-4-5.31s-4,2-4.09,5.22c0,1.59-.07,3.19,0,4.78.07,1.8-.51,2.51-2.49,2.32a64.29,64.29,0,0,1-55.81-49c-.63-2.76-1-5.58-1.47-8.36-.29-1.68.39-2.54,2.1-2.57,2.13,0,4.26,0,6.38-.1a3.47,3.47,0,0,0,3.69-3.69,3.73,3.73,0,0,0-3.71-4,51.9,51.9,0,0,0-6.11,0c-2.11.09-2.61-.93-2.33-2.8,4.05-27.14,18.88-45.39,44.88-54.42A59.39,59.39,0,0,1,363.84,103.93Zm10.27,48.73v-9.29c0-1.42,0-2.84,0-4.25-.1-3-1.69-5-4-5.05s-4,2-4.09,5c0,.71,0,1.42,0,2.12,0,7.26-.09,14.52,0,21.78a7,7,0,0,1-2.46,5.8c-2.62,2.39-5.05,5-7.54,7.49-2.17,2.22-2.4,4.55-.67,6.26s4,1.49,6.27-.74c3.34-3.29,6.58-6.69,10-9.92a7.74,7.74,0,0,0,2.51-6.15C374.06,161.34,374.11,157,374.11,152.66Z"/><path class="cls-1" d="M339.25,294.3c6.21,0,12.41.06,18.62,0a26.72,26.72,0,0,0,26.44-23.94,3.54,3.54,0,0,1,2.93-3.49c11.24-3.2,22.43-6.6,33.7-9.71a17,17,0,0,1,11.87,31.72c-28,13.33-55.93,26.81-84.15,39.66-19.09,8.7-38.14,7.19-56.39-3.1-10.42-5.87-20.51-12.35-31.12-17.86-4.31-2.24-5.4-4.39-5.31-9.21.42-21.89.22-43.79.12-65.68,0-2.33.77-2.82,2.88-2.8,8.78.09,17.55,0,26.33.05,4.87,0,9.4,1.54,13.79,3.54a127.9,127.9,0,0,1,18.73,11.11,19.44,19.44,0,0,0,11.5,3.41c9.13-.07,18.26,0,27.39,0,11.75,0,20,7.91,20,19.16s-8.15,19.3-19.89,19.39c-12.05.09-24.11,0-36.16,0-.89,0-1.78,0-2.66,0-2.38.16-4,1.67-4,3.77a3.85,3.85,0,0,0,4.12,3.92C325.07,294.34,332.16,294.29,339.25,294.3Z"/><path class="cls-1" d="M203.9,266.22q0-20.61,0-41.21c0-4.29,1.45-5.74,5.74-5.75,8.33,0,16.66,0,25,0,7.71,0,13.23,5.56,13.24,13.27q0,33.9,0,67.81a12.9,12.9,0,0,1-13,13.26c-8.5.17-17,.09-25.52,0-3.81,0-5.41-1.79-5.41-5.66Q203.88,287.1,203.9,266.22Zm22.18-24.94a3.43,3.43,0,0,0-3.87,3.41,3.69,3.69,0,1,0,7.33.71A3.56,3.56,0,0,0,226.08,241.28Z"/></svg>