<svg xmlns="http://www.w3.org/2000/svg" id="Layer_1" data-name="Layer 1" viewBox="236.09 116.79 174.38 204.5"><defs><style>.cls-1{fill:#d1d3d4;}</style></defs><path class="cls-1" d="M326.54,321.29h-6.39a160.51,160.51,0,0,1-27.1-12.07c-23.47-13.43-39.91-32.69-48.68-58.37-5.63-16.46-7.6-33.53-8.05-50.78-.3-11.56-.39-23.14.29-34.7A21.63,21.63,0,0,1,246.5,148c4.47-3.08,9.63-3.58,14.82-4,16.35-1.31,31.27-6.44,44.43-16.41,2.88-2.17,5.5-4.61,8.19-7a13.71,13.71,0,0,1,11-3.72c3.7.39,6.53,2.43,9.14,4.89a80.21,80.21,0,0,0,25.71,16.46,94.51,94.51,0,0,0,29.32,6.14A22.23,22.23,0,0,1,409.18,160c1.11,3.5,1.13,7.1,1.16,10.66.07,11.57.37,23.13-.22,34.7a182.63,182.63,0,0,1-4.91,35.46c-6.48,25.89-20.16,46.93-42.16,62.35C351.79,311.09,339.47,316.81,326.54,321.29Zm47.38-102a50.58,50.58,0,1,0-50.69,50.48A50.48,50.48,0,0,0,373.92,219.25Z"/><path class="cls-1" d="M362.53,219.09A39.19,39.19,0,1,1,323.33,180,39.44,39.44,0,0,1,362.53,219.09Zm-58.52.1a5.48,5.48,0,0,0-5.52,3.27,5.41,5.41,0,0,0,1.19,6.44c3.46,3.58,7,7.09,10.56,10.58a5.64,5.64,0,0,0,6.28,1.24,8.53,8.53,0,0,0,3-2.27q13-13,26-26.13a10.84,10.84,0,0,0,1.31-1.49,5.63,5.63,0,0,0-3.61-8.82c-2.42-.49-4.22.59-5.85,2.23-7.14,7.15-14.32,14.26-21.4,21.46-1.3,1.32-2.15,1.34-3.35,0-1.46-1.63-3.08-3.12-4.64-4.66A5.41,5.41,0,0,0,304,219.19Z"/></svg>