<svg xmlns="http://www.w3.org/2000/svg" id="Layer_1" data-name="Layer 1" viewBox="232.59 128.43 181.41 181.23"><defs><style>.cls-1{fill:#001d6e;}</style></defs><path class="cls-1" d="M232.59,219.05A90.77,90.77,0,0,0,318,309.66a2,2,0,0,0,2.07-2V130.43a2,2,0,0,0-2.07-2A90.77,90.77,0,0,0,232.59,219.05Z"/><path class="cls-1" d="M331.27,128.65a2,2,0,0,0-2.13,2v82a2,2,0,0,0,2,2h80.78a2,2,0,0,0,2-2.1A90.78,90.78,0,0,0,331.27,128.65Zm69.27,76H341a2,2,0,0,1-2-2V142.13a2,2,0,0,1,2.38-1.92,80.71,80.71,0,0,1,61.08,62.1A2,2,0,0,1,400.54,204.66Z"/><path class="cls-1" d="M331.27,309.47a90.77,90.77,0,0,0,82.58-83.8,2,2,0,0,0-2-2.09H331.1a2,2,0,0,0-2,2v82A2,2,0,0,0,331.27,309.47Z"/><path class="cls-1" d="M414,214.53h0v0Z"/><path class="cls-1" d="M414,223.49v.09h0Z"/></svg>