<svg xmlns="http://www.w3.org/2000/svg" id="Layer_1" data-name="Layer 1" viewBox="228.52 126.05 189.58 185.97"><defs><style>.cls-1{fill:#d1d3d4;}</style></defs><path class="cls-1" d="M383.06,218.34a20.39,20.39,0,0,1,4.85,6.69,15.38,15.38,0,0,1-6.36,19.51c-1.56.93-1.79,1.34-.44,2.79,8.68,9.28,4.62,23.37-7.63,26.81-.8.22-1.58.47-2.54.75.9,1,1.72,1.83,2.43,2.73,6.66,8.35,3.93,20.92-6.22,24.21-16,5.2-32.33,10-49.45,10.19-9.29.1-18.1-2.52-26.88-5.21-1.68-.52-3.93-.66-4.84-1.82-1.1-1.41.93-3.1,1.41-4.73a19.34,19.34,0,0,0,.23-10.69q-8.5-32.06-17-64.11a15.81,15.81,0,0,0-4.83-8.14c-1.68-1.43-1.26-2.23.45-3,2.06-1,4.08-2,6.15-2.92,1.53-.69,3.12-1.25,4.67-1.91,9.45-4.05,11.81-8.6,10.66-18.82-.78-6.9-2.24-13.78-1.35-20.82a27.21,27.21,0,0,1,5.28-13.72c4.33-5.53,10.13-7.69,17-6.29,5.86,1.19,9.27,5.15,10.81,10.79,3.32,12.17,6.7,24.32,9.86,36.53.58,2.23,1.33,2.57,3.41,2,21.5-5.84,43-11.59,64.53-17.39,9.49-2.56,17.79,2,20.26,11.14,2.37,8.76-2.77,17.26-12,19.68C398.21,214.49,390.88,216.33,383.06,218.34Z"/><path class="cls-1" d="M283.79,294.42a13.51,13.51,0,0,1-10.22,13.14c-3.39,1-6.79,1.94-10.2,2.82-7.83,2-14.92-1.91-17.07-9.7q-8.72-31.6-17.2-63.28c-2.18-8.15,1.9-14.94,10.07-17.28,3-.85,6-1.65,9-2.48,8.74-2.43,16.3,1.83,18.66,10.62q5.64,21.08,11.21,42.17c1.59,6,3.18,12,4.81,18A22.34,22.34,0,0,1,283.79,294.42Z"/><path class="cls-1" d="M340.06,165.64a3.52,3.52,0,0,1-3.24-2.44c-4.25-10.23-8.5-20.47-12.67-30.74-.89-2.19-.14-4,1.68-4.59,2.09-.72,3.21.57,3.9,2.22q6.56,15.67,13,31.42C343.64,163.77,342.45,165.6,340.06,165.64Z"/><path class="cls-1" d="M374.18,165.64c-2.45,0-3.48-2-2.36-4.74q4.32-10.5,8.68-21c1.46-3.49,2.87-7,4.47-10.43.69-1.48,2-2.34,3.74-1.55a3,3,0,0,1,1.76,3.93c-.22.72-.52,1.42-.81,2.12l-10.33,24.93c-.61,1.48-1.19,3-1.83,4.43A3.45,3.45,0,0,1,374.18,165.64Z"/><path class="cls-1" d="M354.07,145.93c0-5.05,0-10.1,0-15.14a9.27,9.27,0,0,1,.36-2.73,2.78,2.78,0,0,1,2.92-2,2.54,2.54,0,0,1,2.58,2,10.49,10.49,0,0,1,.35,2.73q0,15.15,0,30.29c0,.42,0,.84,0,1.26-.19,1.9-1,3.25-3.13,3.22s-3-1.32-3.05-3.27c-.06-3.87,0-7.74,0-11.61Z"/></svg>