<?xml version="1.0" encoding="utf-8" ?>
<svg xmlns="http://www.w3.org/2000/svg">

    <symbol viewBox="0 0 24 25" fill="none" id="dropdown-expand-icon">
        <path
      d="M12 17.7062C12.3906 17.7062 12.7188 17.5577 13.0234 17.2452L18.8047 11.3312C19.0391 11.0968 19.1562 10.8156 19.1562 10.4718C19.1562 9.77649 18.6016 9.21399 17.9141 9.21399C17.5781 9.21399 17.2578 9.35461 17 9.61243L12.0078 14.7687L7.00781 9.61243C6.75 9.35461 6.42969 9.21399 6.08594 9.21399C5.39844 9.21399 4.84375 9.77649 4.84375 10.4718C4.84375 10.8077 4.96094 11.089 5.19531 11.3312L10.9766 17.2452C11.2969 17.5656 11.6172 17.7062 12 17.7062Z"
      fill="currentColor"
    />
    </symbol>

    <symbol viewBox="0 0 19 18" fill="none" id="copy-address-icon">
        <path
      d="M4.04199 13.3027H5.18359V14.3008C5.18359 15.8525 6.03809 16.7002 7.59668 16.7002H14.624C16.1826 16.7002 17.0371 15.8525 17.0371 14.3008V7.24609C17.0371 5.69434 16.1826 4.84668 14.624 4.84668H13.4824V3.8418C13.4824 2.29688 12.6279 1.44238 11.0693 1.44238H4.04199C2.4834 1.44238 1.62891 2.29004 1.62891 3.8418V10.9033C1.62891 12.4551 2.4834 13.3027 4.04199 13.3027ZM4.2334 11.5391C3.68652 11.5391 3.39258 11.2656 3.39258 10.6846V4.06055C3.39258 3.47949 3.68652 3.21289 4.2334 3.21289H10.8779C11.4248 3.21289 11.7188 3.47949 11.7188 4.06055V4.84668H7.59668C6.03809 4.84668 5.18359 5.69434 5.18359 7.24609V11.5391H4.2334ZM7.78809 14.9365C7.24121 14.9365 6.94727 14.6699 6.94727 14.0889V7.45801C6.94727 6.87695 7.24121 6.61035 7.78809 6.61035H14.4326C14.9795 6.61035 15.2734 6.87695 15.2734 7.45801V14.0889C15.2734 14.6699 14.9795 14.9365 14.4326 14.9365H7.78809Z"
      fill="#25292E"
    />
    </symbol>

    <symbol viewBox="0 0 19 18" fill="none" id="disconnect-wallet-icon">
        <path
      d="M3.67773 16.5908H10.999C12.5508 16.5908 13.3984 15.7432 13.3984 14.1777V11.2656H11.6348V13.9863C11.6348 14.5332 11.3682 14.8271 10.7871 14.8271H3.88965C3.30859 14.8271 3.04199 14.5332 3.04199 13.9863V4.15625C3.04199 3.60254 3.30859 3.30859 3.88965 3.30859H10.7871C11.3682 3.30859 11.6348 3.60254 11.6348 4.15625V6.89746H13.3984V3.95801C13.3984 2.39941 12.5508 1.54492 10.999 1.54492H3.67773C2.12598 1.54492 1.27832 2.39941 1.27832 3.95801V14.1777C1.27832 15.7432 2.12598 16.5908 3.67773 16.5908ZM8.43555 9.85059H15.0869L16.0918 9.78906L15.5654 10.1445L14.6836 10.9648C14.54 11.1016 14.458 11.2861 14.458 11.4844C14.458 11.8398 14.7314 12.168 15.1211 12.168C15.3193 12.168 15.4629 12.0928 15.5996 11.9561L17.7803 9.68652C17.9854 9.48145 18.0537 9.27637 18.0537 9.06445C18.0537 8.85254 17.9854 8.64746 17.7803 8.43555L15.5996 6.17285C15.4629 6.03613 15.3193 5.9541 15.1211 5.9541C14.7314 5.9541 14.458 6.27539 14.458 6.6377C14.458 6.83594 14.54 7.02734 14.6836 7.15723L15.5654 7.98438L16.0918 8.33984L15.0869 8.27148H8.43555C8.01855 8.27148 7.65625 8.62012 7.65625 9.06445C7.65625 9.50195 8.01855 9.85059 8.43555 9.85059Z"
      fill="#25292E"
    />
    </symbol>

</svg>
